<svg width="300" height="300" font-family="sans-serif" xmlns="http://www.w3.org/2000/svg" xmlns:xlink="http://www.w3.org/1999/xlink">
  <!-- edges -->
  <g fill="none" stroke="black">
    <line x1="50%" y1="10%" x2="90%" y2="40%"/><line x1="50%" y1="10%" x2="75%" y2="90%"/><line x1="50%" y1="10%" x2="25%" y2="90%"/><line x1="50%" y1="10%" x2="10%" y2="40%"/><line x1="90%" y1="40%" x2="75%" y2="90%"/><line x1="90%" y1="40%" x2="25%" y2="90%"/><line x1="90%" y1="40%" x2="10%" y2="40%"/><line x1="75%" y1="90%" x2="25%" y2="90%"/><line x1="75%" y1="90%" x2="10%" y2="40%"/><line x1="25%" y1="90%" x2="10%" y2="40%"/>
  </g>

  <!-- edge labels -->

  <g font-size="12" fill="none" stroke="white" stroke-width="5" stroke-cap="round" text-anchor="middle">
    <text x="70%" y="25%">w<tspan font-size="8" dy="4">AB</tspan></text><text x="62.5%" y="50%">w<tspan font-size="8" dy="4">AC</tspan></text><text x="37.5%" y="50%">w<tspan font-size="8" dy="4">AD</tspan></text><text x="30%" y="25%">w<tspan font-size="8" dy="4">AE</tspan></text><text x="82.5%" y="65%">w<tspan font-size="8" dy="4">BC</tspan></text><text x="57.5%" y="65%">w<tspan font-size="8" dy="4">BD</tspan></text><text x="50%" y="40%">w<tspan font-size="8" dy="4">BE</tspan></text><text x="50%" y="90%">w<tspan font-size="8" dy="4">CD</tspan></text><text x="42.5%" y="65%">w<tspan font-size="8" dy="4">CE</tspan></text><text x="17.5%" y="65%">w<tspan font-size="8" dy="4">DE</tspan></text>
  </g>

  <g font-size="12" fill="black" text-anchor="middle">
    <text x="70%" y="25%">w<tspan font-size="8" dy="4">AB</tspan></text><text x="62.5%" y="50%">w<tspan font-size="8" dy="4">AC</tspan></text><text x="37.5%" y="50%">w<tspan font-size="8" dy="4">AD</tspan></text><text x="30%" y="25%">w<tspan font-size="8" dy="4">AE</tspan></text><text x="82.5%" y="65%">w<tspan font-size="8" dy="4">BC</tspan></text><text x="57.5%" y="65%">w<tspan font-size="8" dy="4">BD</tspan></text><text x="50%" y="40%">w<tspan font-size="8" dy="4">BE</tspan></text><text x="50%" y="90%">w<tspan font-size="8" dy="4">CD</tspan></text><text x="42.5%" y="65%">w<tspan font-size="8" dy="4">CE</tspan></text><text x="17.5%" y="65%">w<tspan font-size="8" dy="4">DE</tspan></text>
  </g>

  <!-- vertices -->
  <g fill="black">
    <circle r="5" cx="50%" cy="10%"/><circle r="5" cx="90%" cy="40%"/><circle r="5" cx="75%" cy="90%"/><circle r="5" cx="25%" cy="90%"/><circle r="5" cx="10%" cy="40%"/>
  </g>

  <!-- vertex labels -->
  <g font-size="12" fill="black" text-anchor="middle">
    <text x="50%" y="8%">A</text><text x="90%" y="38%">B</text><text x="75%" y="95%">C</text><text x="25%" y="95%">D</text><text x="10%" y="38%">E</text>
  </g>
</svg>